HIERARCHY
ROOT Hips
{
	OFFSET 0.000000 71.427986 0.000000
	CHANNELS 6 Xposition Yposition Zposition Xrotation Yrotation Zrotation
	JOINT Pelvis
	{
		OFFSET 0.000000 0.000000 0.000000
		CHANNELS 3 Xrotation Yrotation Zrotation
		JOINT LeftUpLeg
		{
			OFFSET 6.797100 -2.508499 -1.318700
			CHANNELS 3 Xrotation Yrotation Zrotation
			JOINT LeftLeg
			{
				OFFSET 0.069008 -29.241863 0.690200
				CHANNELS 3 Xrotation Yrotation Zrotation
				JOINT LeftFoot
				{
					OFFSET -0.069008 -29.568123 -0.266800
					CHANNELS 3 Xrotation Yrotation Zrotation
					JOINT LeftToeBase
					{
						OFFSET 3.145500 -8.631000 16.059900
						CHANNELS 3 Xrotation Yrotation Zrotation
						End Site
						{
							OFFSET 0.000000 18.501587 0.000000
						}
					}
				}
			}
			JOINT Left_ShortSleeve
			{
				OFFSET 0.265923 -10.480953 1.153800
				CHANNELS 3 Xrotation Yrotation Zrotation
				End Site
				{
					OFFSET 1.725763 19.823879 0.000000
				}
			}
		}
		JOINT RightUpLeg
		{
			OFFSET -6.797100 -2.508499 -1.318700
			CHANNELS 3 Xrotation Yrotation Zrotation
			JOINT RightLeg
			{
				OFFSET -0.082453 -29.241932 0.688000
				CHANNELS 3 Xrotation Yrotation Zrotation
				JOINT RightFoot
				{
					OFFSET 0.082453 -29.568058 -0.264600
					CHANNELS 3 Xrotation Yrotation Zrotation
					JOINT RightToeBase
					{
						OFFSET -3.115300 -8.682800 16.113400
						CHANNELS 3 Xrotation Yrotation Zrotation
						End Site
						{
							OFFSET 0.000000 18.567114 0.000000
						}
					}
				}
			}
			JOINT Right_ShortSleeve
			{
				OFFSET -0.265923 -10.480953 1.153800
				CHANNELS 3 Xrotation Yrotation Zrotation
				End Site
				{
					OFFSET -1.725766 19.823910 0.000000
				}
			}
		}
	}
	JOINT Spine
	{
		OFFSET 0.000000 13.368103 0.470500
		CHANNELS 3 Xrotation Yrotation Zrotation
		JOINT Spine1
		{
			OFFSET 0.147000 13.837402 0.538800
			CHANNELS 3 Xrotation Yrotation Zrotation
			JOINT Spine2
			{
				OFFSET 0.168000 16.242897 -1.435500
				CHANNELS 3 Xrotation Yrotation Zrotation
				JOINT Neck
				{
					OFFSET 0.217200 18.631500 -1.679100
					CHANNELS 3 Xrotation Yrotation Zrotation
					JOINT Head
					{
						OFFSET 0.000000 6.599396 1.385900
						CHANNELS 3 Xrotation Yrotation Zrotation
						JOINT Hat
						{
							OFFSET -0.532200 27.220596 -10.096100
							CHANNELS 3 Xrotation Yrotation Zrotation
							End Site
							{
								OFFSET 0.000000 22.029861 0.000000
							}
						}
						JOINT HairD
						{
							OFFSET -10.777400 17.437393 -1.325900
							CHANNELS 3 Xrotation Yrotation Zrotation
							JOINT HairD1
							{
								OFFSET -3.290299 -11.051193 1.062200
								CHANNELS 3 Xrotation Yrotation Zrotation
								End Site
								{
									OFFSET 0.000000 11.579437 0.000000
								}
							}
						}
						JOINT HairB
						{
							OFFSET -10.777400 17.437393 1.467900
							CHANNELS 3 Xrotation Yrotation Zrotation
							JOINT HairB1
							{
								OFFSET -1.561200 -12.956299 3.590200
								CHANNELS 3 Xrotation Yrotation Zrotation
								End Site
								{
									OFFSET 0.000000 13.534866 0.000000
								}
							}
						}
						JOINT HairA
						{
							OFFSET 9.713100 17.437393 1.467900
							CHANNELS 3 Xrotation Yrotation Zrotation
							JOINT HairA1
							{
								OFFSET 1.561200 -12.956299 3.590200
								CHANNELS 3 Xrotation Yrotation Zrotation
								End Site
								{
									OFFSET 0.000000 13.534866 0.000000
								}
							}
						}
						JOINT HairC
						{
							OFFSET 9.713100 17.437393 -1.325900
							CHANNELS 3 Xrotation Yrotation Zrotation
							JOINT HairC1
							{
								OFFSET 3.290300 -11.051193 1.062200
								CHANNELS 3 Xrotation Yrotation Zrotation
								End Site
								{
									OFFSET 0.000000 11.579437 0.000000
								}
							}
						}
					}
				}
				JOINT LeftShoulder
				{
					OFFSET 5.101800 15.108002 -2.763700
					CHANNELS 3 Xrotation Yrotation Zrotation
					JOINT LeftArm
					{
						OFFSET 9.825497 2.506317 -1.597400
						CHANNELS 3 Xrotation Yrotation Zrotation
						JOINT LeftForeArm
						{
							OFFSET 21.966244 0.000000 0.000000
							CHANNELS 3 Xrotation Yrotation Zrotation
							JOINT LeftHand
							{
								OFFSET 33.879036 0.000000 0.000000
								CHANNELS 3 Xrotation Yrotation Zrotation
								JOINT LeftHandThumb1
								{
									OFFSET 6.715286 -2.359680 3.363841
									CHANNELS 3 Xrotation Yrotation Zrotation
									JOINT LeftHandThumb2
									{
										OFFSET 2.507072 -1.447464 1.447461
										CHANNELS 3 Xrotation Yrotation Zrotation
										JOINT LeftHandThumb3
										{
											OFFSET 2.898338 -1.673355 1.673357
											CHANNELS 3 Xrotation Yrotation Zrotation
											End Site
											{
												OFFSET -0.295959 3.727692 -0.131651
											}
										}
									}
								}
								JOINT LeftHandIndex1
								{
									OFFSET 14.190811 -0.254547 3.840278
									CHANNELS 3 Xrotation Yrotation Zrotation
									JOINT LeftHandIndex2
									{
										OFFSET 3.551727 0.000000 -0.000000
										CHANNELS 3 Xrotation Yrotation Zrotation
										JOINT LeftHandIndex3
										{
											OFFSET 2.894196 0.000000 0.000000
											CHANNELS 3 Xrotation Yrotation Zrotation
											End Site
											{
												OFFSET -1.000603 2.690872 0.366626
											}
										}
									}
								}
								JOINT LeftHandMiddle1
								{
									OFFSET 13.776489 0.000000 0.000000
									CHANNELS 3 Xrotation Yrotation Zrotation
									JOINT LeftHandMiddle2
									{
										OFFSET 3.438232 0.000000 0.000000
										CHANNELS 3 Xrotation Yrotation Zrotation
										JOINT LeftHandMiddle3
										{
											OFFSET 3.691551 0.000000 0.000000
											CHANNELS 3 Xrotation Yrotation Zrotation
											End Site
											{
												OFFSET -1.082298 3.499527 0.457670
											}
										}
									}
								}
								JOINT LeftHandRing1
								{
									OFFSET 13.966164 -0.268127 -3.067488
									CHANNELS 3 Xrotation Yrotation Zrotation
									JOINT LeftHandRing2
									{
										OFFSET 3.162567 0.000000 0.000000
										CHANNELS 3 Xrotation Yrotation Zrotation
										JOINT LeftHandRing3
										{
											OFFSET 3.324348 0.000000 0.000000
											CHANNELS 3 Xrotation Yrotation Zrotation
											End Site
											{
												OFFSET -0.861900 3.184998 0.405154
											}
										}
									}
								}
								JOINT LeftHandPinky1
								{
									OFFSET 13.131393 -0.168503 -5.746925
									CHANNELS 3 Xrotation Yrotation Zrotation
									JOINT LeftHandPinky2
									{
										OFFSET 2.849182 0.000000 0.000000
										CHANNELS 3 Xrotation Yrotation Zrotation
										JOINT LeftHandPinky3
										{
											OFFSET 2.805038 0.000000 0.000000
											CHANNELS 3 Xrotation Yrotation Zrotation
											End Site
											{
												OFFSET -0.882500 2.642609 0.325652
											}
										}
									}
								}
							}
							JOINT Left_Sleeve
							{
								OFFSET 6.592125 -0.646545 0.805568
								CHANNELS 3 Xrotation Yrotation Zrotation
								End Site
								{
									OFFSET -0.000179 20.275787 -0.000000
								}
							}
						}
					}
				}
				JOINT RightShoulder
				{
					OFFSET -5.731700 15.108002 -2.763700
					CHANNELS 3 Xrotation Yrotation Zrotation
					JOINT RightArm
					{
						OFFSET -9.825497 2.506317 -1.597400
						CHANNELS 3 Xrotation Yrotation Zrotation
						JOINT RightForeArm
						{
							OFFSET -21.966242 0.000000 0.000000
							CHANNELS 3 Xrotation Yrotation Zrotation
							JOINT RightHand
							{
								OFFSET -33.879032 0.000000 0.000000
								CHANNELS 3 Xrotation Yrotation Zrotation
								JOINT RightHandThumb1
								{
									OFFSET -6.715286 -2.359680 3.363841
									CHANNELS 3 Xrotation Yrotation Zrotation
									JOINT RightHandThumb2
									{
										OFFSET -2.507072 -1.447464 1.447461
										CHANNELS 3 Xrotation Yrotation Zrotation
										JOINT RightHandThumb3
										{
											OFFSET -2.898338 -1.673355 1.673357
											CHANNELS 3 Xrotation Yrotation Zrotation
											End Site
											{
												OFFSET 0.295959 3.727692 -0.131651
											}
										}
									}
								}
								JOINT RightHandIndex1
								{
									OFFSET -14.190811 -0.254547 3.840278
									CHANNELS 3 Xrotation Yrotation Zrotation
									JOINT RightHandIndex2
									{
										OFFSET -3.551727 0.000000 -0.000000
										CHANNELS 3 Xrotation Yrotation Zrotation
										JOINT RightHandIndex3
										{
											OFFSET -2.894196 0.000000 0.000000
											CHANNELS 3 Xrotation Yrotation Zrotation
											End Site
											{
												OFFSET 1.000603 2.690872 0.366626
											}
										}
									}
								}
								JOINT RightHandMiddle1
								{
									OFFSET -13.776489 0.000000 0.000000
									CHANNELS 3 Xrotation Yrotation Zrotation
									JOINT RightHandMiddle2
									{
										OFFSET -3.438232 0.000000 0.000000
										CHANNELS 3 Xrotation Yrotation Zrotation
										JOINT RightHandMiddle3
										{
											OFFSET -3.691551 0.000000 0.000000
											CHANNELS 3 Xrotation Yrotation Zrotation
											End Site
											{
												OFFSET 1.082298 3.499527 0.457670
											}
										}
									}
								}
								JOINT RightHandRing1
								{
									OFFSET -13.966164 -0.268127 -3.067488
									CHANNELS 3 Xrotation Yrotation Zrotation
									JOINT RightHandRing2
									{
										OFFSET -3.162567 0.000000 0.000000
										CHANNELS 3 Xrotation Yrotation Zrotation
										JOINT RightHandRing3
										{
											OFFSET -3.324348 0.000000 0.000000
											CHANNELS 3 Xrotation Yrotation Zrotation
											End Site
											{
												OFFSET 0.861900 3.184998 0.405154
											}
										}
									}
								}
								JOINT RightHandPinky1
								{
									OFFSET -13.131393 -0.168503 -5.746925
									CHANNELS 3 Xrotation Yrotation Zrotation
									JOINT RightHandPinky2
									{
										OFFSET -2.849182 0.000000 0.000000
										CHANNELS 3 Xrotation Yrotation Zrotation
										JOINT RightHandPinky3
										{
											OFFSET -2.805038 0.000000 0.000000
											CHANNELS 3 Xrotation Yrotation Zrotation
											End Site
											{
												OFFSET 0.882500 2.642609 0.325652
											}
										}
									}
								}
							}
							JOINT Right_Sleeve
							{
								OFFSET -6.592125 -0.646545 0.805568
								CHANNELS 3 Xrotation Yrotation Zrotation
								End Site
								{
									OFFSET 0.000179 20.275787 -0.000000
								}
							}
						}
					}
				}
				JOINT Bind_Right_JacketString
				{
					OFFSET -3.534800 11.969597 7.200700
					CHANNELS 3 Xrotation Yrotation Zrotation
					JOINT Bind_Right_JacketString1
					{
						OFFSET -0.319900 -6.102600 2.794100
						CHANNELS 3 Xrotation Yrotation Zrotation
						End Site
						{
							OFFSET 0.000000 6.719452 0.000000
						}
					}
				}
				JOINT Bind_Left_JacketString
				{
					OFFSET 2.904800 11.969597 7.200700
					CHANNELS 3 Xrotation Yrotation Zrotation
					JOINT Bind_Left_JacketString1
					{
						OFFSET 0.364800 -5.904503 3.186800
						CHANNELS 3 Xrotation Yrotation Zrotation
						End Site
						{
							OFFSET 0.000000 6.719513 0.000000
						}
					}
				}
				JOINT HairE
				{
					OFFSET 5.915200 17.612701 -11.592200
					CHANNELS 3 Xrotation Yrotation Zrotation
					JOINT HairE1
					{
						OFFSET 0.289200 -7.171898 -1.284500
						CHANNELS 3 Xrotation Yrotation Zrotation
						End Site
						{
							OFFSET 0.000000 7.291756 0.000000
						}
					}
				}
				JOINT HairF
				{
					OFFSET -0.864800 17.612701 -11.592200
					CHANNELS 3 Xrotation Yrotation Zrotation
					JOINT HairF1
					{
						OFFSET 0.000000 -14.087097 -2.127501
						CHANNELS 3 Xrotation Yrotation Zrotation
						End Site
						{
							OFFSET 0.000000 14.246841 0.000000
						}
					}
				}
				JOINT HairG
				{
					OFFSET -8.087700 17.612701 -11.592200
					CHANNELS 3 Xrotation Yrotation Zrotation
					JOINT HairG1
					{
						OFFSET -0.293600 -6.081398 -0.910100
						CHANNELS 3 Xrotation Yrotation Zrotation
						End Site
						{
							OFFSET 0.000000 6.156120 0.000000
						}
					}
				}
			}
		}
	}
	JOINT Pouch
	{
		OFFSET 0.000000 4.394501 10.847300
		CHANNELS 3 Xrotation Yrotation Zrotation
		End Site
		{
			OFFSET 0.000000 21.880577 0.000000
		}
	}
	JOINT Bag
	{
		OFFSET -13.229000 4.813004 -0.593300
		CHANNELS 3 Xrotation Yrotation Zrotation
		End Site
		{
			OFFSET 0.000000 21.880577 0.000000
		}
	}
	JOINT OccupyGuyFacialAnim_Joint
	{
		OFFSET 1.000000 -70.206398 -1.655000
		CHANNELS 3 Xrotation Yrotation Zrotation
		End Site
		{
			OFFSET 0.000000 21.880577 0.000000
		}
	}
}
MOTION
Frames: 4
Frame Time: 0.033333
0.013340 64.567345 0.099789 9.540974 -61.607746 10.158364 -0.000000 0.000000 0.000000 -34.030021 13.174131 22.630278 36.645153 -7.061429 1.214782 -8.817791 -1.953541 -15.288981 0.000000 -0.000003 0.000000 -0.000000 0.000000 0.000003 -29.116734 -21.189349 -31.055173 35.640060 3.720360 -4.158991 -13.966018 0.510989 21.623530 -0.000000 -0.000000 0.000000 -0.000001 -0.000000 0.000000 15.063690 -0.338017 -4.297657 5.872399 0.563939 -2.798215 5.868718 0.648188 -2.860165 -3.632880 1.437145 3.747498 -20.005962 54.836778 2.407375 0.000000 -0.000000 0.000000 0.000000 -0.000000 0.000000 0.000000 -0.000000 0.000000 0.000000 -0.000000 -0.000000 0.000000 0.000000 -0.000000 0.000000 -0.000000 -0.000000 0.000000 0.000000 -0.000000 0.000000 -0.000000 0.000000 0.000000 -0.000000 0.000000 1.828105 -3.192689 -12.271568 -39.387416 26.350491 -34.911091 0.429374 -46.808485 0.416181 -10.315057 -0.130726 0.363022 40.109941 -15.297120 -0.360502 5.639834 28.097906 11.338840 -0.000000 -0.000000 -0.000001 6.882261 2.840079 -61.140411 8.247969 7.640039 -89.897864 0.000002 0.000003 -0.000003 -2.345498 4.688881 -62.655204 8.754144 9.897069 -87.051294 0.000005 0.000002 -0.000001 -9.042458 10.045650 -60.766164 8.524093 9.508831 -66.893035 -0.000004 -0.000000 -0.000001 -17.946909 14.755019 -51.485840 8.868443 8.667052 -84.811968 0.000000 -0.000001 0.000003 0.000000 -0.000002 -0.000001 0.632609 7.257343 8.700395 7.936026 -9.680156 53.429920 -22.867449 36.194702 17.955464 -27.369922 10.432889 -17.813555 -2.346181 -6.100553 10.731434 2.364060 -23.806293 -8.771063 -0.000000 -0.000001 0.000001 -0.054746 0.532098 0.738731 0.019781 -0.087294 5.078496 0.000001 -0.000001 0.000004 0.348242 -5.918542 2.583820 1.432627 -4.204198 24.052113 0.000001 0.000001 -0.000004 1.205813 -11.756069 4.154782 1.794847 -3.771867 26.865403 0.000000 0.000000 -0.000002 2.126208 -19.166856 11.319984 3.354767 -2.122238 18.828547 0.000000 0.000001 -0.000001 0.000001 0.000000 0.000001 -0.000000 0.000002 -0.000000 -0.000001 0.000002 0.000001 -0.000000 0.000002 -0.000000 -0.000000 0.000002 -0.000000 -0.000000 0.000002 -0.000000 -0.000001 0.000002 0.000001 -0.000000 0.000002 -0.000000 -0.000000 0.000002 -0.000000 -0.000000 0.000002 -0.000000 -0.000001 0.000002 0.000001 -0.000000 0.000000 0.000000 -0.000000 0.000000 0.000000 -0.000000 0.000000 0.000000 
-0.092453 64.675438 0.127707 8.412602 -61.557394 8.871186 0.000000 0.000000 -0.000000 -33.870802 14.311674 23.458625 36.290175 -8.088972 1.116221 -8.675627 -2.486474 -14.900119 -0.000000 0.000000 -0.000000 -0.000001 -0.000001 -0.000003 -27.928135 -21.584281 -30.574334 34.897195 3.595932 -4.167791 -13.765690 0.463042 21.685352 -0.000000 -0.000000 0.000000 0.000001 -0.000000 0.000002 15.790918 -0.330064 -3.722261 6.097330 0.535761 -2.599435 6.093971 0.567883 -2.640492 -3.687188 1.503677 3.681045 -20.516836 54.820792 3.122821 -0.000000 0.000000 -0.000000 -0.000000 0.000000 -0.000000 -0.000000 0.000000 0.000000 -0.000000 0.000000 -0.000000 -0.000000 0.000000 -0.000000 -0.000000 0.000000 -0.000000 -0.000000 0.000000 -0.000000 -0.000000 0.000000 -0.000000 -0.000000 0.000000 -0.000000 1.855049 -2.603297 -12.487071 -33.003115 23.636954 -39.138941 0.403776 -48.470215 0.429773 -9.927214 -0.469861 0.540348 40.109941 -15.297120 -0.360497 5.639834 28.097911 11.338837 -0.000000 -0.000002 0.000003 6.882262 2.840079 -61.140411 8.247974 7.640040 -89.897857 0.000001 -0.000000 -0.000002 -2.345502 4.688883 -62.655204 8.754142 9.897063 -87.051294 0.000002 0.000001 0.000001 -9.042460 10.045645 -60.766164 8.524098 9.508829 -66.893035 -0.000000 0.000000 -0.000002 -17.946904 14.755012 -51.485840 8.868440 8.667063 -84.811968 -0.000000 -0.000002 -0.000001 -0.000003 -0.000000 -0.000002 0.661777 7.039152 8.678747 9.601214 -4.641953 50.580515 -23.576056 38.211647 18.984794 -27.613142 9.510634 -15.958689 -2.256781 -6.956148 9.889953 2.364058 -23.806293 -8.771060 0.000000 0.000000 -0.000000 -0.005706 -0.383825 3.734800 0.114690 -0.798510 10.015677 -0.000004 -0.000001 0.000009 0.361686 -6.297239 7.121674 1.744625 -4.858258 28.561543 0.000001 -0.000001 0.000003 1.601929 -11.450395 8.763552 2.156955 -4.439652 31.370389 -0.000002 0.000000 -0.000001 1.971371 -18.907256 15.928122 3.584639 -2.834423 23.320463 -0.000002 -0.000000 0.000002 0.000000 0.000002 0.000000 -0.000002 0.000001 0.000001 -0.000002 0.000001 0.000001 -0.000002 0.000001 0.000000 -0.000002 0.000001 0.000000 -0.000002 0.000001 0.000001 -0.000002 0.000001 0.000001 -0.000002 0.000001 0.000000 -0.000002 0.000001 0.000000 -0.000002 0.000001 0.000001 -0.000002 0.000001 0.000001 0.000000 0.000000 -0.000000 0.000000 0.000000 -0.000000 0.000000 0.000000 -0.000000 
-0.182638 64.940521 -0.047099 7.421067 -60.964663 7.415890 0.000000 0.000001 0.000000 -33.363090 14.301646 23.517952 35.049689 -4.163367 1.693165 -8.051354 -7.147576 -15.546718 -0.000000 0.000002 -0.000000 0.000001 0.000000 0.000000 -26.287224 -22.517288 -29.478045 33.440360 3.169818 -4.200472 -13.265967 0.313584 21.625644 0.000000 0.000000 0.000000 0.000000 -0.000000 0.000000 17.732197 -0.884545 -2.003488 6.702955 0.336988 -2.236277 6.704253 0.294259 -2.244298 -3.928096 1.661909 3.630926 -22.976290 54.725948 4.895259 0.000000 0.000000 -0.000000 0.000000 0.000000 -0.000000 0.000000 0.000000 -0.000000 0.000000 0.000000 -0.000000 -0.000000 -0.000000 -0.000001 0.000000 0.000000 -0.000000 -0.000000 -0.000000 -0.000001 0.000000 0.000000 -0.000000 0.000000 0.000000 -0.000000 1.986148 -2.744226 -11.492544 -26.350288 22.914842 -44.311887 0.358755 -51.380812 0.451476 -8.752494 -0.999092 2.282695 40.109944 -15.297115 -0.360501 5.639833 28.097909 11.338843 -0.000000 -0.000000 0.000002 6.882267 2.840081 -61.140411 8.247973 7.640036 -89.897857 0.000001 -0.000001 -0.000002 -2.345497 4.688888 -62.655204 8.754145 9.897063 -87.051294 0.000001 0.000002 -0.000001 -9.042453 10.045648 -60.766171 8.524095 9.508837 -66.893035 0.000000 0.000004 -0.000003 -17.946906 14.755015 -51.485846 8.868443 8.667054 -84.811962 -0.000002 -0.000004 -0.000001 0.000001 -0.000000 -0.000002 0.672521 6.750995 8.625255 11.629368 -0.233148 45.751817 -26.947647 45.686206 23.564947 -27.440548 8.825955 -13.805248 -2.132716 -7.948148 8.958745 2.364060 -23.806293 -8.771063 0.000000 0.000000 0.000004 0.138622 -1.430064 7.166519 0.298159 -1.599604 15.673951 -0.000003 0.000002 0.000001 0.384930 -6.749179 12.320080 2.169381 -5.573197 33.737234 0.000001 0.000001 0.000001 1.999203 -11.084175 14.033030 2.641039 -5.168278 36.540836 -0.000000 0.000001 0.000000 1.680309 -18.650450 21.167825 3.937212 -3.627807 28.472038 0.000001 0.000001 -0.000001 0.000003 0.000001 0.000001 -0.000001 -0.000001 0.000003 -0.000001 -0.000002 0.000001 -0.000001 -0.000001 0.000002 -0.000001 -0.000001 0.000002 -0.000001 -0.000001 0.000003 -0.000001 -0.000002 0.000001 -0.000001 -0.000001 0.000002 -0.000001 -0.000001 0.000002 -0.000001 -0.000001 0.000003 -0.000001 -0.000002 0.000001 0.000000 0.000001 0.000000 0.000000 0.000001 0.000000 0.000000 0.000001 0.000000 
0.046257 65.316315 -0.733069 7.143045 -59.960407 6.106009 -0.000000 0.000001 -0.000000 -33.688211 12.732863 22.670900 33.883684 -4.580255 3.330823 -6.350181 -6.690268 -15.444082 0.000000 -0.000001 0.000000 -0.000002 -0.000003 -0.000001 -25.218129 -23.246040 -27.336666 32.738391 2.392283 -4.308397 -12.901437 -0.109855 20.288971 -0.000000 0.000000 -0.000000 -0.000000 0.000001 -0.000001 20.572122 -2.701889 -0.917203 7.586295 -0.272404 -2.055102 7.596992 -0.345802 -2.054970 -4.577840 1.885087 3.840325 -29.422324 54.432786 7.142786 -0.000000 0.000001 -0.000000 -0.000000 0.000001 -0.000000 -0.000000 0.000001 0.000000 -0.000000 0.000001 -0.000000 -0.000000 0.000000 0.000000 -0.000000 0.000001 -0.000000 -0.000000 0.000000 0.000000 -0.000000 0.000001 -0.000000 -0.000000 0.000001 -0.000000 2.374687 -4.798053 -7.947075 -22.292551 28.365916 -46.130363 0.256901 -57.570981 0.485652 -6.933362 -1.444409 5.530874 40.109938 -15.297115 -0.360500 5.639839 28.097911 11.338837 0.000001 0.000002 0.000002 6.882260 2.840078 -61.140411 8.247973 7.640036 -89.897857 0.000001 0.000001 0.000002 -2.345495 4.688886 -62.655204 8.754146 9.897070 -87.051294 0.000000 -0.000001 0.000000 -9.042457 10.045648 -60.766171 8.524094 9.508834 -66.893035 -0.000000 0.000002 -0.000003 -17.946901 14.755015 -51.485840 8.868447 8.667055 -84.811968 -0.000000 -0.000003 0.000002 0.000000 -0.000000 -0.000000 0.579379 7.563538 8.140457 11.736840 1.120117 39.696469 -36.706314 57.648723 35.338777 -26.197112 9.048013 -12.568468 -2.008057 -8.974208 8.004174 2.364058 -23.806290 -8.771061 -0.000001 -0.000001 0.000001 0.386056 -2.498612 10.710315 0.569553 -2.402916 21.517382 -0.000000 -0.000003 -0.000002 0.426631 -7.238347 17.685240 2.679678 -6.265277 39.089634 0.000002 0.000001 0.000003 2.347039 -10.696102 19.459641 3.214433 -5.872166 41.887877 0.000000 -0.000001 0.000001 1.260966 -18.448981 26.532174 4.398778 -4.410450 33.796278 0.000004 -0.000001 0.000000 0.000002 -0.000001 0.000001 -0.000002 -0.000002 -0.000000 -0.000000 -0.000000 0.000001 -0.000002 -0.000002 -0.000000 -0.000002 -0.000002 -0.000000 -0.000002 -0.000002 -0.000000 -0.000000 -0.000000 0.000001 -0.000002 -0.000002 -0.000000 -0.000002 -0.000002 -0.000000 -0.000002 -0.000002 -0.000000 -0.000000 -0.000000 0.000001 -0.000000 0.000001 -0.000000 -0.000000 0.000001 -0.000000 -0.000000 0.000001 -0.000000 
